<?xml version="1.0" encoding="UTF-8"?>
<svg id="Calque_2" data-name="Calque 2" xmlns="http://www.w3.org/2000/svg" viewBox="0 0 495.97 99.7">
  <defs>
    <style>
      .cls-1 {
        fill: #ff2635;
      }

      .cls-1, .cls-2 {
        stroke-width: 0px;
      }

      .cls-2 {
        fill: #121628;
      }
    </style>
  </defs>
  <g id="Calque_1_-_copie" data-name="Calque 1 - copie">
    <g>
      <g>
        <polygon class="cls-2" points="36.9 15.45 87.13 66.17 96.56 66.17 96.56 1.93 85.87 1.93 85.87 50.44 38 1.93 26.31 1.93 26.31 65.88 36.9 65.88 36.9 15.45"/>
        <polygon class="cls-2" points="173.11 1.93 104.05 1.93 104.05 11.52 133.01 11.52 133.01 65.88 143.97 65.88 143.97 11.52 162.15 11.52 173.11 1.93"/>
        <polygon class="cls-2" points="183.6 41.18 227.26 41.18 227.26 31.59 183.6 31.59 183.6 11.53 235.49 11.53 235.49 1.93 183.74 1.93 172.73 12.26 172.73 65.88 227.71 65.88 236.4 56.29 183.6 56.29 183.6 41.18"/>
        <path class="cls-2" d="M240.81,19.75c0,13.07,16.64,16.97,34.29,18.44,10.51.92,17.57,1.95,21.23,4.46,1.91,1.23,2.87,2.95,2.87,5.22s-.96,4.34-2.87,5.94c-3.46,2.94-9.99,4.5-19.24,4.5-12.86,0-23.1-3.46-31.78-11.23l-6.85,7.77c9.96,8.56,23.18,12.94,38.2,12.94,9.04,0,16.41-1.51,21.91-4.18,3.86-1.79,6.77-4.18,8.72-7.01,2.03-2.83,3.07-6.09,3.07-9.64,0-3.74-1.08-6.73-3.07-9.16-2.43-2.9-6.17-4.98-10.96-6.45-5.42-1.71-12.15-2.67-19.79-3.27-13.98-1.11-24.66-2.31-24.66-9.04,0-7.13,12.07-9.6,22.18-9.52,10.32.08,19.16,2.67,25.69,8.16l7.49-7.09c-7.69-6.45-19.48-10.59-33.34-10.59-18.36,0-33.1,7.05-33.1,19.75Z"/>
        <path class="cls-2" d="M315.45,33.89c0,21.03,15.09,33.89,39.03,33.89,9.44,0,17.36-2.27,23.5-6.01,4.38-2.67,7.89-6.09,10.4-9.96l-10.16-5.02c-.08.12-.16.24-.24.36-4.82,7.69-12.98,10.95-23.22,10.95-16.93,0-28.16-8.21-28.16-24.22s11.23-24.18,28.16-24.18c10.4,0,18.52,3.46,23.3,11.31l.12-.04,8.13-7.69c-6.33-7.8-17.19-13.29-31.35-13.3h-.08c-24.35.02-39.42,12.92-39.42,33.89Z"/>
        <path class="cls-2" d="M449.38,1.93l-34.62,63.94h11.88l8.13-15.43h41.02l8.22,15.43h11.97L461.44,1.93h-12.06ZM439.7,41.13l15.62-29.6,15.62,29.6h-31.24Z"/>
        <polygon class="cls-2" points="396.81 65.88 407.77 65.88 407.77 12.84 396.81 23.22 396.81 65.88"/>
        <polygon class="cls-1" points="407.77 12.83 407.77 1.9 396.81 1.9 396.81 12.84 407.76 12.84 407.77 12.84 407.77 12.83"/>
        <polygon class="cls-2" points="10.96 12.84 0 23.22 0 65.88 10.96 65.88 10.96 12.84"/>
        <polygon class="cls-2" points="10.96 12.83 10.96 1.9 0 1.9 0 12.84 10.95 12.84 10.96 12.84 10.96 12.83"/>
      </g>
      <g>
        <path class="cls-2" d="M87.48,88.27v11.09h5.62c4.12,0,6.75-2.12,6.75-5.55s-2.63-5.55-6.75-5.55h-5.62ZM97.91,93.82c0,2.57-2.03,3.88-4.95,3.88h-3.58v-7.77h3.58c2.92,0,4.95,1.32,4.95,3.88Z"/>
        <path class="cls-2" d="M108.4,99.26h2.06l1.41-2.68h7.12l1.42,2.68h2.08l-5.99-11.09h-2.09l-6.01,11.09ZM118.15,94.96h-5.42l2.71-5.14,2.71,5.14Z"/>
        <polygon class="cls-2" points="136.22 99.37 136.22 89.94 141.28 89.94 141.28 88.28 129.29 88.28 129.29 89.94 134.32 89.94 134.32 99.37 136.22 99.37"/>
        <path class="cls-2" d="M148.07,99.37h2.06l1.41-2.68h7.12l1.43,2.68h2.08l-5.99-11.09h-2.09l-6,11.09ZM157.81,95.08h-5.42l2.71-5.14,2.71,5.14Z"/>
        <polygon class="cls-2" points="195.3 89.95 195.3 88.28 184.44 88.28 184.44 99.37 186.35 99.37 186.35 94.92 193.92 94.92 193.92 93.22 186.35 93.22 186.35 89.95 195.3 89.95"/>
        <path class="cls-2" d="M204.51,93.82c0,3.66,2.63,5.88,6.9,5.88s6.9-2.22,6.9-5.88-2.63-5.88-6.9-5.88-6.9,2.22-6.9,5.88ZM216.35,93.82c0,2.69-1.93,4.2-4.94,4.2s-4.96-1.51-4.96-4.2,1.95-4.2,4.96-4.2,4.94,1.51,4.94,4.2Z"/>
        <path class="cls-2" d="M241.04,91.81c0-2.29-1.9-3.53-4.48-3.53h-7.55v11.09h1.9v-4.03h4.68l3.44,4.03h2.34l-3.59-4.12c1.93-.35,3.27-1.52,3.27-3.44ZM236.43,93.71h-5.53v-3.77h5.53c1.58,0,2.66.51,2.66,1.88s-1.08,1.89-2.66,1.89Z"/>
        <path class="cls-2" d="M270.36,98.05c-2.23,0-4-.6-5.51-1.95l-1.19,1.35c1.73,1.48,4.02,2.25,6.63,2.25,3.77,0,5.84-1.5,5.84-3.61,0-2.31-2.41-3.01-5.86-3.28-2.43-.19-4.28-.4-4.28-1.57,0-1.24,2.09-1.67,3.85-1.65,1.84.02,3.4.49,4.55,1.49l1.21-1.3c-1.33-1.12-3.38-1.84-5.79-1.84-3.19,0-5.74,1.23-5.74,3.43s2.88,2.94,5.94,3.2c2.79.23,4.19.54,4.19,1.68s-1.36,1.81-3.84,1.81Z"/>
        <path class="cls-2" d="M286.4,88.27v5.86c0,3.28,2.11,5.56,6.02,5.56s6.04-2.29,6.04-5.56v-5.86h-1.9v5.74c0,2.49-1.48,4-4.14,4s-4.12-1.51-4.12-4v-5.74h-1.9Z"/>
        <path class="cls-2" d="M315.76,89.62c1.8,0,3.21.61,4.04,1.97l1.77-.88c-1.03-1.59-3.06-2.76-5.78-2.76-4.23,0-6.85,2.24-6.85,5.88s2.62,5.88,6.77,5.88c2.81,0,4.83-1.16,5.88-2.77l-1.76-.87c-.84,1.38-2.27,1.97-4.07,1.97-2.94,0-4.88-1.42-4.88-4.2s1.95-4.2,4.88-4.2Z"/>
        <path class="cls-2" d="M337.88,89.62c1.8,0,3.21.61,4.04,1.97l1.77-.88c-1.03-1.59-3.06-2.76-5.79-2.76-4.23,0-6.85,2.24-6.85,5.88s2.62,5.88,6.77,5.88c2.81,0,4.84-1.16,5.88-2.77l-1.76-.87c-.84,1.38-2.27,1.97-4.07,1.97-2.94,0-4.88-1.42-4.88-4.2s1.95-4.2,4.88-4.2Z"/>
        <polygon class="cls-2" points="364.96 89.94 364.96 88.28 354.07 88.28 354.07 99.37 365.12 99.37 365.12 97.7 355.95 97.7 355.95 94.57 363.53 94.57 363.53 92.9 355.95 92.9 355.95 89.94 364.96 89.94"/>
        <path class="cls-2" d="M381.34,98.05c-2.23,0-4.01-.6-5.51-1.95l-1.19,1.35c1.73,1.48,4.02,2.25,6.63,2.25,3.77,0,5.84-1.5,5.84-3.61,0-2.31-2.41-3.01-5.86-3.28-2.43-.19-4.28-.4-4.28-1.57,0-1.24,2.09-1.67,3.85-1.65,1.84.02,3.4.49,4.55,1.49l1.2-1.3c-1.33-1.12-3.37-1.84-5.78-1.84-3.19,0-5.74,1.23-5.74,3.43s2.88,2.94,5.94,3.2c2.79.23,4.19.54,4.19,1.68s-1.36,1.81-3.84,1.81Z"/>
        <path class="cls-2" d="M403.22,98.05c-2.23,0-4-.6-5.51-1.95l-1.19,1.35c1.73,1.48,4.02,2.25,6.63,2.25,3.77,0,5.84-1.5,5.84-3.61,0-2.31-2.41-3.01-5.86-3.28-2.43-.19-4.28-.4-4.28-1.57,0-1.24,2.09-1.67,3.85-1.65,1.84.02,3.4.49,4.55,1.49l1.2-1.3c-1.33-1.12-3.37-1.84-5.78-1.84-3.19,0-5.74,1.23-5.74,3.43s2.88,2.94,5.94,3.2c2.79.23,4.19.54,4.19,1.68s-1.36,1.81-3.84,1.81Z"/>
      </g>
    </g>
  </g>
</svg>